<?xml version="1.0" standalone="no"?>
<!DOCTYPE svg PUBLIC "-//W3C//DTD SVG 20010904//EN"
 "http://www.w3.org/TR/2001/REC-SVG-20010904/DTD/svg10.dtd">
<svg version="1.0" xmlns="http://www.w3.org/2000/svg"
 width="2917.000000pt" height="918.000000pt" viewBox="0 0 2917.000000 918.000000"
 preserveAspectRatio="xMidYMid meet">

<g transform="translate(0.000000,918.000000) scale(0.100000,-0.100000)"
fill="#000000" stroke="none">
<path d="M22972 7493 c-62 -19 -143 -87 -191 -161 -16 -26 -115 -229 -219
-452 -104 -223 -472 -1006 -817 -1740 -1222 -2600 -1398 -2976 -1422 -3045
-48 -139 -28 -252 57 -329 72 -65 141 -91 240 -91 112 0 175 30 266 128 76 82
27 -17 649 1312 268 572 668 1423 888 1890 220 468 424 905 453 973 63 147
110 233 156 286 l35 40 31 -22 c36 -26 62 -66 90 -138 17 -43 795 -1723 1660
-3586 254 -547 320 -671 403 -762 72 -79 132 -108 236 -114 67 -4 96 0 152 18
179 57 221 182 141 420 -26 77 -2137 4645 -2355 5095 -101 210 -184 283 -329
291 -48 2 -89 -2 -124 -13z"/>
<path d="M10482 7484 c-55 -20 -148 -106 -189 -175 -18 -30 -181 -373 -364
-764 -182 -390 -718 -1538 -1191 -2550 -473 -1012 -871 -1867 -883 -1900 -66
-173 -28 -292 115 -364 164 -81 328 -62 443 54 36 35 66 85 118 189 38 78 511
1086 1052 2240 540 1155 987 2101 993 2103 27 9 79 -55 125 -152 26 -55 307
-662 624 -1350 318 -687 716 -1549 885 -1915 430 -931 485 -1042 550 -1113 70
-76 134 -109 227 -115 141 -9 283 58 336 159 26 49 29 61 24 134 -3 61 -13
104 -42 180 -20 55 -377 829 -792 1720 -416 891 -942 2021 -1170 2510 -228
490 -426 910 -440 934 -39 67 -101 130 -158 159 -64 33 -195 41 -263 16z"/>
<path d="M5639 7476 c-92 -33 -151 -96 -187 -201 -16 -47 -17 -176 -17 -1960
0 -2121 5 -1961 -65 -2180 -100 -309 -313 -540 -643 -695 -207 -97 -397 -143
-597 -143 -252 0 -473 67 -727 221 -162 99 -226 126 -311 130 -66 4 -79 1
-135 -27 -34 -17 -95 -60 -134 -97 l-73 -66 0 -138 0 -139 37 -28 c21 -15 94
-73 163 -127 164 -130 224 -168 345 -215 226 -88 452 -124 780 -124 496 0 745
46 1040 193 171 85 295 173 436 308 209 200 354 414 442 652 69 186 90 304
124 690 44 509 3 3582 -51 3756 -29 92 -91 159 -177 189 -51 19 -200 19 -250
1z"/>
<path d="M15170 7481 c-83 -26 -161 -103 -186 -185 -27 -91 -48 -1025 -38
-1741 5 -330 9 -1282 9 -2115 1 -1410 2 -1519 19 -1573 22 -74 84 -140 148
-158 55 -16 3356 -13 3430 2 70 15 125 60 156 127 23 48 27 71 27 147 0 74 -4
98 -23 137 -29 58 -78 103 -152 137 l-55 26 -1345 5 -1345 5 -51 23 c-61 27
-106 72 -131 127 -17 38 -18 155 -23 2400 -6 2533 -2 2381 -55 2485 -31 61
-80 108 -140 136 -41 19 -66 24 -135 23 -47 0 -96 -4 -110 -8z"/>
<path d="M24960 7435 l0 -55 105 0 105 0 0 -320 0 -320 70 0 70 0 2 318 3 317
103 3 102 3 0 54 0 55 -280 0 -280 0 0 -55z"/>
<path d="M25610 7115 l0 -375 75 0 75 0 0 253 c1 213 3 248 14 227 7 -14 50
-128 96 -253 l84 -228 65 3 64 3 91 247 c50 135 94 250 99 254 4 4 7 -108 7
-249 l0 -257 70 0 70 0 0 375 0 375 -87 0 -88 0 -110 -280 c-60 -154 -112
-280 -115 -280 -3 0 -55 125 -116 278 l-112 277 -91 3 -91 3 0 -376z"/>
</g>
</svg>
